{
    "asset" : {
        "generator" : "Khronos glTF Blender I/O v1.6.16",
        "version" : "2.0"
    },
    "scene" : 0,
    "scenes" : [
        {
            "name" : "Scene",
            "nodes" : [
                0,
                1,
                2
            ]
        }
    ],
    "nodes" : [
        {
            "name" : "Light",
            "rotation" : [
                0.16907575726509094,
                0.7558803558349609,
                -0.27217137813568115,
                0.570947527885437
            ],
            "translation" : [
                4.076245307922363,
                5.903861999511719,
                -1.0054539442062378
            ]
        },
        {
            "name" : "Camera",
            "rotation" : [
                0.483536034822464,
                0.33687159419059753,
                -0.20870360732078552,
                0.7804827094078064
            ],
            "translation" : [
                7.358891487121582,
                4.958309173583984,
                6.925790786743164
            ]
        },
        {
            "mesh" : 0,
            "name" : "Nova-Shell",
            "rotation" : [
                0.1830131560564041,
                0.18301311135292053,
                0.6830124855041504,
                0.6830126643180847
            ],
            "scale" : [
                0.02539999969303608,
                0.02539999969303608,
                0.02539999969303608
            ],
            "translation" : [
                -0.3461768329143524,
                4.243743896484375,
                -0.5995937585830688
            ]
        }
    ],
    "materials" : [
        {
            "doubleSided" : true,
            "name" : "Carbon",
            "pbrMetallicRoughness" : {
                "baseColorFactor" : [
                    0.0117647061124444,
                    0.0117647061124444,
                    0.0117647061124444,
                    1
                ],
                "metallicFactor" : 0,
                "roughnessFactor" : 0.5527864098548889
            }
        },
        {
            "doubleSided" : true,
            "name" : "Kapton Tape",
            "pbrMetallicRoughness" : {
                "baseColorFactor" : [
                    0.9450980424880981,
                    0.8274509906768799,
                    0.0470588244497776,
                    1
                ],
                "metallicFactor" : 0,
                "roughnessFactor" : 0.5527864098548889
            }
        },
        {
            "doubleSided" : true,
            "name" : "White Thermal",
            "pbrMetallicRoughness" : {
                "metallicFactor" : 0,
                "roughnessFactor" : 0.5527864098548889
            }
        }
    ],
    "meshes" : [
        {
            "name" : "Mesh",
            "primitives" : [
                {
                    "attributes" : {
                        "POSITION" : 0,
                        "NORMAL" : 1,
                        "TEXCOORD_0" : 2,
                        "COLOR_0" : 3
                    },
                    "indices" : 4,
                    "material" : 0
                },
                {
                    "attributes" : {
                        "POSITION" : 5,
                        "NORMAL" : 6,
                        "TEXCOORD_0" : 7,
                        "COLOR_0" : 8
                    },
                    "indices" : 9,
                    "material" : 1
                },
                {
                    "attributes" : {
                        "POSITION" : 10,
                        "NORMAL" : 11,
                        "TEXCOORD_0" : 12,
                        "COLOR_0" : 13
                    },
                    "indices" : 14,
                    "material" : 2
                }
            ]
        }
    ],
    "accessors" : [
        {
            "bufferView" : 0,
            "componentType" : 5126,
            "count" : 12935,
            "max" : [
                117.37385559082031,
                41.159637451171875,
                69.33143615722656
            ],
            "min" : [
                2.8350906372070312,
                -41.15945816040039,
                -14.813148498535156
            ],
            "type" : "VEC3"
        },
        {
            "bufferView" : 1,
            "componentType" : 5126,
            "count" : 12935,
            "type" : "VEC3"
        },
        {
            "bufferView" : 2,
            "componentType" : 5126,
            "count" : 12935,
            "type" : "VEC2"
        },
        {
            "bufferView" : 3,
            "componentType" : 5123,
            "count" : 12935,
            "normalized" : true,
            "type" : "VEC4"
        },
        {
            "bufferView" : 4,
            "componentType" : 5123,
            "count" : 27498,
            "type" : "SCALAR"
        },
        {
            "bufferView" : 5,
            "componentType" : 5126,
            "count" : 4135,
            "max" : [
                117.37385559082031,
                41.159637451171875,
                69.33143615722656
            ],
            "min" : [
                2.8350906372070312,
                -41.15945816040039,
                -14.813148498535156
            ],
            "type" : "VEC3"
        },
        {
            "bufferView" : 6,
            "componentType" : 5126,
            "count" : 4135,
            "type" : "VEC3"
        },
        {
            "bufferView" : 7,
            "componentType" : 5126,
            "count" : 4135,
            "type" : "VEC2"
        },
        {
            "bufferView" : 8,
            "componentType" : 5123,
            "count" : 4135,
            "normalized" : true,
            "type" : "VEC4"
        },
        {
            "bufferView" : 9,
            "componentType" : 5123,
            "count" : 8796,
            "type" : "SCALAR"
        },
        {
            "bufferView" : 10,
            "componentType" : 5126,
            "count" : 98,
            "max" : [
                112.54794311523438,
                30.984031677246094,
                54.21596145629883
            ],
            "min" : [
                112.54792022705078,
                -30.983997344970703,
                0.3000373840332031
            ],
            "type" : "VEC3"
        },
        {
            "bufferView" : 11,
            "componentType" : 5126,
            "count" : 98,
            "type" : "VEC3"
        },
        {
            "bufferView" : 12,
            "componentType" : 5126,
            "count" : 98,
            "type" : "VEC2"
        },
        {
            "bufferView" : 13,
            "componentType" : 5123,
            "count" : 98,
            "normalized" : true,
            "type" : "VEC4"
        },
        {
            "bufferView" : 14,
            "componentType" : 5123,
            "count" : 102,
            "type" : "SCALAR"
        }
    ],
    "bufferViews" : [
        {
            "buffer" : 0,
            "byteLength" : 155220,
            "byteOffset" : 0
        },
        {
            "buffer" : 0,
            "byteLength" : 155220,
            "byteOffset" : 155220
        },
        {
            "buffer" : 0,
            "byteLength" : 103480,
            "byteOffset" : 310440
        },
        {
            "buffer" : 0,
            "byteLength" : 103480,
            "byteOffset" : 413920
        },
        {
            "buffer" : 0,
            "byteLength" : 54996,
            "byteOffset" : 517400
        },
        {
            "buffer" : 0,
            "byteLength" : 49620,
            "byteOffset" : 572396
        },
        {
            "buffer" : 0,
            "byteLength" : 49620,
            "byteOffset" : 622016
        },
        {
            "buffer" : 0,
            "byteLength" : 33080,
            "byteOffset" : 671636
        },
        {
            "buffer" : 0,
            "byteLength" : 33080,
            "byteOffset" : 704716
        },
        {
            "buffer" : 0,
            "byteLength" : 17592,
            "byteOffset" : 737796
        },
        {
            "buffer" : 0,
            "byteLength" : 1176,
            "byteOffset" : 755388
        },
        {
            "buffer" : 0,
            "byteLength" : 1176,
            "byteOffset" : 756564
        },
        {
            "buffer" : 0,
            "byteLength" : 784,
            "byteOffset" : 757740
        },
        {
            "buffer" : 0,
            "byteLength" : 784,
            "byteOffset" : 758524
        },
        {
            "buffer" : 0,
            "byteLength" : 204,
            "byteOffset" : 759308
        }
    ],
    "buffers" : [
        {
            "byteLength" : 759512,
            "uri" : "data:application/octet-stream;base64,"
        }
    ]
}
